<?xml version="1.0" encoding="UTF-8" standalone="no"?>
<!-- Created with Inkscape (http://www.inkscape.org/) -->

<svg
   xmlns:dc="http://purl.org/dc/elements/1.1/"
   xmlns:cc="http://creativecommons.org/ns#"
   xmlns:rdf="http://www.w3.org/1999/02/22-rdf-syntax-ns#"
   xmlns:svg="http://www.w3.org/2000/svg"
   xmlns="http://www.w3.org/2000/svg"
   version="1.1"
   width="1020"
   height="495"
   id="svg2">
  <metadata
     id="metadata32">
    <rdf:RDF>
      <cc:Work
         rdf:about="">
        <dc:format>image/svg+xml</dc:format>
        <dc:type
           rdf:resource="http://purl.org/dc/dcmitype/StillImage" />
        <dc:title></dc:title>
      </cc:Work>
    </rdf:RDF>
  </metadata>
  <defs
     id="defs4" />
  <g
     transform="translate(0,160)"
     id="g3031">
    <path
       d="m 233.16671,159.69596 c 56.0427,-21.56612 95.91017,-75.972186 95.91017,-139.526099 0,-82.404918 -67.02556,-149.430481 -149.43047,-149.430481 C 97.241502,-129.26062 30,-62.235057 30,20.169861 30,102.57478 97.241502,169.60034 179.64641,169.60034 c 3.15187,0 6.28125,-0.098 9.38523,-0.29117 -1.22723,-8.99933 -0.81995,-23.63507 0.27215,-29.45674 -3.18467,0.25196 -6.40536,0.37996 -9.65736,0.37996 -66.46222,0 -120.062635,-53.60046 -120.062635,-120.062644 0,-66.462184 53.600415,-120.062649 120.062635,-120.062649 l 0,2.31e-4 c 66.46217,0 119.84669,53.600464 119.84669,120.062648 0,45.651843 -25.18739,85.235354 -62.49952,105.548104 -1.81719,7.90607 -4.10308,24.86266 -3.82689,33.97788 z"
       id="path3016"
       style="fill:#0085c7;fill-opacity:1" />
    <path
       d="m 464.50292,170.98269 c -7.77588,58.83853 -57.77364,104.02363 -118.79583,104.02363 -66.46224,0 -120.06265,-53.60047 -120.06265,-120.06265 0,-45.54524 25.17125,-85.050501 62.40352,-105.405459 2.60828,-10.236031 4.19082,-21.305451 3.78098,-33.993677 -55.92869,21.652032 -95.76826,75.96959 -95.76826,139.399136 0,82.40492 67.24149,149.43048 149.64641,149.43048 75.10846,0 137.44048,-55.68163 147.8899,-127.93874 -7.659,-0.20065 -23.73798,-3.47799 -29.09407,-5.45272 z m 28.7532,-39.76767 C 481.85672,60.048867 420.03866,5.5131891 345.70709,5.5131891 c -3.2669,0 -6.51,0.1055142 -9.72599,0.3125065 1.79766,6.9336664 1.77241,22.8661954 -0.0957,29.4482064 l 0,3.46e-4 c 3.23865,-0.260615 6.5142,-0.393228 9.82164,-0.393228 55.04283,0 101.11586,36.763857 115.32321,87.15035 9.70488,3.69501 20.12352,6.95379 32.22582,9.18365 z"
       id="path3790"
       style="fill:#f4c300;fill-opacity:1" />
    <path
       d="m 692.86846,43.128944 c 9.24679,59.332826 54.00851,109.788966 116.12962,123.208006 80.54706,17.39929 160.21357,-33.96312 177.61286,-114.510177 17.39936,-80.547119 -33.91751,-160.424653 -114.46463,-177.824003 -80.54706,-17.39929 -160.25918,34.174203 -177.65847,114.721322 -0.66549,3.0807844 -1.23042,6.1602423 -1.69705,9.2350875 9.0556,0.7006028 23.27534,4.1889138 28.73521,6.4856062 0.42609,-3.1660602 0.98105,-6.3411728 1.6677,-9.5198602 14.0331,-64.9638245 77.74252,-106.0384255 142.70634,-92.0053265 64.96377,14.0331 106.03843,77.742517 92.00527,142.706341 l -1.7e-4,-5.7e-5 C 943.87204,110.58971 880.20817,151.45322 815.24435,137.42012 770.62176,127.78097 737.24883,94.803687 725.27227,54.043782 717.92814,50.598311 701.83647,44.783614 692.86846,43.128944 z"
       id="path3842"
       style="fill:#df0024;fill-opacity:1" />
    <path
       d="m 391.18347,4.1308377 c 7.77588,-58.8385237 57.77364,-104.0236247 118.79578,-104.0236247 66.46225,0 120.06265,53.600464 120.06265,120.062648 0,45.545233 -25.17125,85.050499 -62.40352,105.405459 -2.60827,10.23603 -4.19081,21.30545 -3.78098,33.99368 55.9287,-21.65204 95.76826,-75.969595 95.76826,-139.399139 0,-82.404918 -67.24149,-149.430481 -149.64641,-149.430481 -75.10841,0 -137.44043,55.681633 -147.88985,127.9387375 7.659,0.20065 23.73798,3.4779902 29.09407,5.4527202 z m -28.7532,39.7676683 c 11.3994,71.166154 73.21746,125.701834 147.54898,125.701834 3.26691,0 6.51,-0.10551 9.72599,-0.31251 -1.79766,-6.93366 -1.77241,-22.86619 0.0957,-29.4482 l 0,-3.5e-4 c -3.23865,0.26062 -6.5142,0.39323 -9.82164,0.39323 -55.04278,0 -101.11581,-36.76386 -115.32316,-87.150348 -9.70488,-3.695015 -20.12351,-6.95379 -32.22582,-9.183656 z"
       id="path3850"
       style="fill:#000000;fill-opacity:1" />
    <path
       d="m 794.98781,170.98275 c -7.77588,58.83852 -57.77363,104.02362 -118.79578,104.02362 -66.46225,0 -120.06265,-53.60046 -120.06265,-120.06264 0,-45.54524 25.17125,-85.050504 62.40352,-105.405462 2.60827,-10.23603 4.19081,-21.30545 3.78098,-33.993677 -55.92869,21.652033 -95.76826,75.96959 -95.76826,139.399139 0,82.40491 67.24149,149.43047 149.64641,149.43047 75.10841,0 137.44043,-55.68163 147.88985,-127.93873 -7.659,-0.20065 -23.73798,-3.47799 -29.09407,-5.45272 z m 28.7532,-39.76767 C 812.34161,60.048924 750.52355,5.5132467 676.19203,5.5132467 c -3.26691,0 -6.51,0.1055142 -9.72599,0.3125065 1.79766,6.9336668 1.77241,22.8661958 -0.0957,29.4482058 l 0,3.46e-4 c 3.23865,-0.260614 6.5142,-0.393227 9.82164,-0.393227 55.04278,0 101.11581,36.763857 115.32316,87.150352 9.70488,3.69501 20.12352,6.95378 32.22582,9.18365 z"
       id="path3852"
       style="fill:#0da447;fill-opacity:1" />
  </g>
</svg>
